<svg width="40" height="40" viewBox="0 0 40 40" fill="none" xmlns="http://www.w3.org/2000/svg">
<path d="M39.9972 20C39.9972 30.1009 32.5098 38.4515 22.7831 39.8066C21.8736 39.9327 20.9431 39.9986 19.9986 39.9986C18.9084 39.9986 17.8377 39.9117 16.7951 39.7436C7.27298 38.2105 0 29.9538 0 20C0 8.9546 8.9546 0 20 0C31.0454 0 40 8.9546 40 20H39.9972Z" fill="#1877F7"/>
<path d="M22.7832 16.0595V20.4163H28.1728L27.3194 26.2851H22.7832V39.8067C21.8738 39.9328 20.9433 39.9987 19.9988 39.9987C18.9085 39.9987 17.8379 39.9118 16.7953 39.7436V26.2851H11.8247V20.4163H16.7953V15.0855C16.7953 11.7784 19.4761 9.09619 22.7846 9.09619V9.09899C22.7944 9.09899 22.8028 9.09619 22.8127 9.09619H28.1742V14.1719H24.6708C23.6296 14.1719 22.7846 15.0169 22.7846 16.0581L22.7832 16.0595Z" fill="white"/>
</svg>
