<svg width="40" height="40" viewBox="0 0 40 40" fill="none" xmlns="http://www.w3.org/2000/svg">
<path d="M20.0455 0H19.9545C8.93392 0 0 8.93392 0 19.9545V20.0455C0 31.0661 8.93392 40 19.9545 40H20.0455C31.0661 40 40 31.0661 40 20.0455V19.9545C40 8.93392 31.0661 0 20.0455 0Z" fill="url(#paint0_linear_17744_1756)"/>
<path d="M26.1891 8.13794H13.812C10.3926 8.13794 7.61084 10.9197 7.61084 14.3391V25.6624C7.61084 29.0818 10.3926 31.8635 13.812 31.8635H26.1891C29.6085 31.8635 32.3903 29.0818 32.3903 25.6624V14.3391C32.3903 10.9197 29.6085 8.13794 26.1891 8.13794ZM9.79842 14.3391C9.79842 12.1263 11.5992 10.3255 13.812 10.3255H26.1891C28.4019 10.3255 30.2027 12.1263 30.2027 14.3391V25.6624C30.2027 27.8752 28.4019 29.676 26.1891 29.676H13.812C11.5992 29.676 9.79842 27.8752 9.79842 25.6624V14.3391Z" fill="white"/>
<path d="M20.0006 25.7675C23.1803 25.7675 25.7687 23.1805 25.7687 19.9993C25.7687 16.8182 23.1817 14.2312 20.0006 14.2312C16.8194 14.2312 14.2324 16.8182 14.2324 19.9993C14.2324 23.1805 16.8194 25.7675 20.0006 25.7675ZM20.0006 16.4202C21.9751 16.4202 23.5811 18.0262 23.5811 20.0007C23.5811 21.9753 21.9751 23.5813 20.0006 23.5813C18.026 23.5813 16.42 21.9753 16.42 20.0007C16.42 18.0262 18.026 16.4202 20.0006 16.4202Z" fill="white"/>
<path d="M26.3027 15.1631C27.1589 15.1631 27.8568 14.4666 27.8568 13.609C27.8568 12.7513 27.1603 12.0548 26.3027 12.0548C25.445 12.0548 24.7485 12.7513 24.7485 13.609C24.7485 14.4666 25.445 15.1631 26.3027 15.1631Z" fill="white"/>
<defs>
<linearGradient id="paint0_linear_17744_1756" x1="5.84381" y1="34.1562" x2="34.1562" y2="5.84522" gradientUnits="userSpaceOnUse">
<stop stop-color="#FAAD4F"/>
<stop offset="0.35" stop-color="#DD2A7B"/>
<stop offset="0.62" stop-color="#9537B0"/>
<stop offset="1" stop-color="#515BD4"/>
</linearGradient>
</defs>
</svg>
