<svg width="40" height="40" viewBox="0 0 40 40" fill="none" xmlns="http://www.w3.org/2000/svg">
<path d="M20.0455 0H19.9545C8.93391 0 0 8.93391 0 19.9545V20.0455C0 31.0661 8.93391 40 19.9545 40H20.0455C31.0661 40 40 31.0661 40 20.0455V19.9545C40 8.93391 31.0661 0 20.0455 0Z" fill="#00E510"/>
<path d="M23.8979 25.8501C18.7787 25.8501 14.6137 21.6838 14.6123 16.5645C14.6137 15.2668 15.6704 14.2115 16.9653 14.2115C17.0984 14.2115 17.2301 14.2228 17.3562 14.2452C17.6337 14.2914 17.8972 14.3853 18.1396 14.5269C18.1747 14.5479 18.1985 14.5815 18.2041 14.6208L18.745 18.0303C18.752 18.071 18.7394 18.1102 18.7128 18.1397C18.4143 18.4704 18.0331 18.7086 17.6085 18.8277L17.4039 18.8852L17.481 19.0828C18.1788 20.8598 19.5999 22.2794 21.3782 22.9801L21.5758 23.0585L21.6333 22.8539C21.7524 22.4293 21.9906 22.0481 22.3214 21.7496C22.3452 21.7272 22.3774 21.716 22.4097 21.716C22.4167 21.716 22.4237 21.716 22.4321 21.7174L25.8417 22.2584C25.8823 22.2654 25.916 22.2878 25.937 22.3228C26.0771 22.5653 26.171 22.8301 26.2187 23.1076C26.2411 23.2309 26.2509 23.3613 26.2509 23.4972C26.2509 24.7935 25.1956 25.8487 23.8979 25.8501Z" fill="#FDFDFD"/>
<path d="M32.9763 18.8768C32.7002 15.7573 31.2708 12.8635 28.9515 10.7291C26.6182 8.58219 23.5912 7.39941 20.4254 7.39941C13.4773 7.39941 7.8241 13.0526 7.8241 20.0007C7.8241 22.3327 8.46733 24.6043 9.68514 26.5831L6.96924 32.5951L15.6649 31.6688C17.177 32.2882 18.7774 32.6021 20.424 32.6021C20.8571 32.6021 21.3013 32.5797 21.747 32.5334C22.1393 32.4914 22.5359 32.4297 22.9255 32.3512C28.7441 31.1755 32.9917 26.0113 33.0254 20.068V20.0007C33.0254 19.6224 33.0086 19.244 32.9749 18.8768H32.9763ZM15.9998 29.0299L11.1889 29.5428L12.6253 26.3603L12.338 25.9749C12.317 25.9469 12.2959 25.9188 12.2721 25.8866C11.0249 24.1643 10.3662 22.1295 10.3662 20.0022C10.3662 14.4554 14.8787 9.94294 20.4254 9.94294C25.6218 9.94294 30.0264 13.9972 30.451 19.1725C30.4734 19.45 30.486 19.7289 30.486 20.0036C30.486 20.082 30.4846 20.1591 30.4832 20.2418C30.3767 24.8818 27.1353 28.8225 22.6004 29.8259C22.2542 29.903 21.8997 29.9619 21.5465 29.9997C21.1794 30.0417 20.8024 30.0628 20.4282 30.0628C19.0955 30.0628 17.8006 29.8049 16.5772 29.2948C16.4413 29.2401 16.3081 29.1813 16.1834 29.121L16.0012 29.0327L15.9998 29.0299Z" fill="#FDFDFD"/>
</svg>
